<svg id="visual" viewBox="0 0 900 600" width="900" height="600" xmlns="http://www.w3.org/2000/svg" xmlns:xlink="http://www.w3.org/1999/xlink" version="1.1"><path d="M0 219L12.5 221.8C25 224.7 50 230.3 75 228.8C100 227.3 125 218.7 150 214.5C175 210.3 200 210.7 225 215C250 219.3 275 227.7 300 229.8C325 232 350 228 375 228.8C400 229.7 425 235.3 450 233.8C475 232.3 500 223.7 525 220.3C550 217 575 219 600 220.8C625 222.7 650 224.3 675 220.8C700 217.3 725 208.7 750 205.7C775 202.7 800 205.3 825 205C850 204.7 875 201.3 887.5 199.7L900 198L900 0L887.5 0C875 0 850 0 825 0C800 0 775 0 750 0C725 0 700 0 675 0C650 0 625 0 600 0C575 0 550 0 525 0C500 0 475 0 450 0C425 0 400 0 375 0C350 0 325 0 300 0C275 0 250 0 225 0C200 0 175 0 150 0C125 0 100 0 75 0C50 0 25 0 12.5 0L0 0Z" fill="#ffffff"></path><path d="M0 183L12.5 185.7C25 188.3 50 193.7 75 195.7C100 197.7 125 196.3 150 190.7C175 185 200 175 225 174.5C250 174 275 183 300 187.2C325 191.3 350 190.7 375 186.2C400 181.7 425 173.3 450 175.5C475 177.7 500 190.3 525 196.7C550 203 575 203 600 201.2C625 199.3 650 195.7 675 194.2C700 192.7 725 193.3 750 196.2C775 199 800 204 825 204.5C850 205 875 201 887.5 199L900 197L900 0L887.5 0C875 0 850 0 825 0C800 0 775 0 750 0C725 0 700 0 675 0C650 0 625 0 600 0C575 0 550 0 525 0C500 0 475 0 450 0C425 0 400 0 375 0C350 0 325 0 300 0C275 0 250 0 225 0C200 0 175 0 150 0C125 0 100 0 75 0C50 0 25 0 12.5 0L0 0Z" fill="#e3f6f6"></path><path d="M0 158L12.5 158.5C25 159 50 160 75 157.2C100 154.3 125 147.7 150 148.3C175 149 200 157 225 157.5C250 158 275 151 300 146.2C325 141.3 350 138.7 375 137.5C400 136.3 425 136.7 450 141C475 145.3 500 153.7 525 157C550 160.3 575 158.7 600 157.8C625 157 650 157 675 156.2C700 155.3 725 153.7 750 156.7C775 159.7 800 167.3 825 165.2C850 163 875 151 887.5 145L900 139L900 0L887.5 0C875 0 850 0 825 0C800 0 775 0 750 0C725 0 700 0 675 0C650 0 625 0 600 0C575 0 550 0 525 0C500 0 475 0 450 0C425 0 400 0 375 0C350 0 325 0 300 0C275 0 250 0 225 0C200 0 175 0 150 0C125 0 100 0 75 0C50 0 25 0 12.5 0L0 0Z" fill="#c6edec"></path><path d="M0 119L12.5 119.5C25 120 50 121 75 121.5C100 122 125 122 150 121.5C175 121 200 120 225 119.7C250 119.3 275 119.7 300 119C325 118.3 350 116.7 375 119.5C400 122.3 425 129.7 450 128.7C475 127.7 500 118.3 525 119.3C550 120.3 575 131.7 600 136.2C625 140.7 650 138.3 675 134.2C700 130 725 124 750 120.3C775 116.7 800 115.3 825 116.3C850 117.3 875 120.7 887.5 122.3L900 124L900 0L887.5 0C875 0 850 0 825 0C800 0 775 0 750 0C725 0 700 0 675 0C650 0 625 0 600 0C575 0 550 0 525 0C500 0 475 0 450 0C425 0 400 0 375 0C350 0 325 0 300 0C275 0 250 0 225 0C200 0 175 0 150 0C125 0 100 0 75 0C50 0 25 0 12.5 0L0 0Z" fill="#a8e4e3"></path><path d="M0 109L12.5 104.8C25 100.7 50 92.3 75 90.8C100 89.3 125 94.7 150 96.2C175 97.7 200 95.3 225 94.7C250 94 275 95 300 97.3C325 99.7 350 103.3 375 100.8C400 98.3 425 89.7 450 88C475 86.3 500 91.7 525 95.5C550 99.3 575 101.7 600 102.5C625 103.3 650 102.7 675 101.8C700 101 725 100 750 97.5C775 95 800 91 825 88.3C850 85.7 875 84.3 887.5 83.7L900 83L900 0L887.5 0C875 0 850 0 825 0C800 0 775 0 750 0C725 0 700 0 675 0C650 0 625 0 600 0C575 0 550 0 525 0C500 0 475 0 450 0C425 0 400 0 375 0C350 0 325 0 300 0C275 0 250 0 225 0C200 0 175 0 150 0C125 0 100 0 75 0C50 0 25 0 12.5 0L0 0Z" fill="#87dada"></path><path d="M0 77L12.5 73.7C25 70.3 50 63.7 75 62.3C100 61 125 65 150 66.2C175 67.3 200 65.7 225 66.3C250 67 275 70 300 70.8C325 71.7 350 70.3 375 67.2C400 64 425 59 450 59.2C475 59.3 500 64.7 525 68.3C550 72 575 74 600 73.5C625 73 650 70 675 68C700 66 725 65 750 64.7C775 64.3 800 64.7 825 62.8C850 61 875 57 887.5 55L900 53L900 0L887.5 0C875 0 850 0 825 0C800 0 775 0 750 0C725 0 700 0 675 0C650 0 625 0 600 0C575 0 550 0 525 0C500 0 475 0 450 0C425 0 400 0 375 0C350 0 325 0 300 0C275 0 250 0 225 0C200 0 175 0 150 0C125 0 100 0 75 0C50 0 25 0 12.5 0L0 0Z" fill="#61d1d0"></path><path d="M0 30L12.5 30.8C25 31.7 50 33.3 75 32.5C100 31.7 125 28.3 150 27C175 25.7 200 26.3 225 28.3C250 30.3 275 33.7 300 36.3C325 39 350 41 375 41.2C400 41.3 425 39.7 450 37C475 34.3 500 30.7 525 31C550 31.3 575 35.7 600 38.2C625 40.7 650 41.3 675 39.8C700 38.3 725 34.7 750 32.8C775 31 800 31 825 32C850 33 875 35 887.5 36L900 37L900 0L887.5 0C875 0 850 0 825 0C800 0 775 0 750 0C725 0 700 0 675 0C650 0 625 0 600 0C575 0 550 0 525 0C500 0 475 0 450 0C425 0 400 0 375 0C350 0 325 0 300 0C275 0 250 0 225 0C200 0 175 0 150 0C125 0 100 0 75 0C50 0 25 0 12.5 0L0 0Z" fill="#24c7c7"></path></svg>