<svg id="visual" viewBox="0 0 900 600" width="900" height="600" xmlns="http://www.w3.org/2000/svg" xmlns:xlink="http://www.w3.org/1999/xlink" version="1.1"><path d="M582 600L580 590C578 580 574 560 570.3 540C566.7 520 563.3 500 557.7 480C552 460 544 440 544 420C544 400 552 380 551 360C550 340 540 320 536.2 300C532.3 280 534.7 260 545.7 240C556.7 220 576.3 200 585.5 180C594.7 160 593.3 140 585.2 120C577 100 562 80 549.3 60C536.7 40 526.3 20 521.2 10L516 0L900 0L900 10C900 20 900 40 900 60C900 80 900 100 900 120C900 140 900 160 900 180C900 200 900 220 900 240C900 260 900 280 900 300C900 320 900 340 900 360C900 380 900 400 900 420C900 440 900 460 900 480C900 500 900 520 900 540C900 560 900 580 900 590L900 600Z" fill="#24c7c7"></path><path d="M633 600L622.7 590C612.3 580 591.7 560 593.3 540C595 520 619 500 624.5 480C630 460 617 440 612.2 420C607.3 400 610.7 380 611.2 360C611.7 340 609.3 320 601.5 300C593.7 280 580.3 260 585.7 240C591 220 615 200 619.8 180C624.7 160 610.3 140 608 120C605.7 100 615.3 80 616 60C616.7 40 608.3 20 604.2 10L600 0L900 0L900 10C900 20 900 40 900 60C900 80 900 100 900 120C900 140 900 160 900 180C900 200 900 220 900 240C900 260 900 280 900 300C900 320 900 340 900 360C900 380 900 400 900 420C900 440 900 460 900 480C900 500 900 520 900 540C900 560 900 580 900 590L900 600Z" fill="#61d1d0"></path><path d="M673 600L664 590C655 580 637 560 635.7 540C634.3 520 649.7 500 655.7 480C661.7 460 658.3 440 659 420C659.7 400 664.3 380 668.7 360C673 340 677 320 678.7 300C680.3 280 679.7 260 674.8 240C670 220 661 200 661.3 180C661.7 160 671.3 140 667.5 120C663.7 100 646.3 80 647.2 60C648 40 667 20 676.5 10L686 0L900 0L900 10C900 20 900 40 900 60C900 80 900 100 900 120C900 140 900 160 900 180C900 200 900 220 900 240C900 260 900 280 900 300C900 320 900 340 900 360C900 380 900 400 900 420C900 440 900 460 900 480C900 500 900 520 900 540C900 560 900 580 900 590L900 600Z" fill="#87dada"></path><path d="M691 600L689.8 590C688.7 580 686.3 560 686.5 540C686.7 520 689.3 500 693.7 480C698 460 704 440 700.7 420C697.3 400 684.7 380 681.3 360C678 340 684 320 691.3 300C698.7 280 707.3 260 706.7 240C706 220 696 200 688.2 180C680.3 160 674.7 140 682 120C689.3 100 709.7 80 717.5 60C725.3 40 720.7 20 718.3 10L716 0L900 0L900 10C900 20 900 40 900 60C900 80 900 100 900 120C900 140 900 160 900 180C900 200 900 220 900 240C900 260 900 280 900 300C900 320 900 340 900 360C900 380 900 400 900 420C900 440 900 460 900 480C900 500 900 520 900 540C900 560 900 580 900 590L900 600Z" fill="#a8e4e3"></path><path d="M723 600L730.7 590C738.3 580 753.7 560 756.5 540C759.3 520 749.7 500 749.5 480C749.3 460 758.7 440 758.7 420C758.7 400 749.3 380 744.5 360C739.7 340 739.3 320 737.5 300C735.7 280 732.3 260 736 240C739.7 220 750.3 200 749 180C747.7 160 734.3 140 732.8 120C731.3 100 741.7 80 747.2 60C752.7 40 753.3 20 753.7 10L754 0L900 0L900 10C900 20 900 40 900 60C900 80 900 100 900 120C900 140 900 160 900 180C900 200 900 220 900 240C900 260 900 280 900 300C900 320 900 340 900 360C900 380 900 400 900 420C900 440 900 460 900 480C900 500 900 520 900 540C900 560 900 580 900 590L900 600Z" fill="#c6edec"></path><path d="M776 600L781.2 590C786.3 580 796.7 560 799.3 540C802 520 797 500 796.7 480C796.3 460 800.7 440 803.5 420C806.3 400 807.7 380 803.8 360C800 340 791 320 787 300C783 280 784 260 788 240C792 220 799 200 798.8 180C798.7 160 791.3 140 791.8 120C792.3 100 800.7 80 806.8 60C813 40 817 20 819 10L821 0L900 0L900 10C900 20 900 40 900 60C900 80 900 100 900 120C900 140 900 160 900 180C900 200 900 220 900 240C900 260 900 280 900 300C900 320 900 340 900 360C900 380 900 400 900 420C900 440 900 460 900 480C900 500 900 520 900 540C900 560 900 580 900 590L900 600Z" fill="#e3f6f6"></path><path d="M851 600L849.7 590C848.3 580 845.7 560 843.2 540C840.7 520 838.3 500 842.3 480C846.3 460 856.7 440 856.8 420C857 400 847 380 846.8 360C846.7 340 856.3 320 857.7 300C859 280 852 260 851.2 240C850.3 220 855.7 200 854.7 180C853.7 160 846.3 140 846.8 120C847.3 100 855.7 80 854 60C852.3 40 840.7 20 834.8 10L829 0L900 0L900 10C900 20 900 40 900 60C900 80 900 100 900 120C900 140 900 160 900 180C900 200 900 220 900 240C900 260 900 280 900 300C900 320 900 340 900 360C900 380 900 400 900 420C900 440 900 460 900 480C900 500 900 520 900 540C900 560 900 580 900 590L900 600Z" fill="#ffffff"></path></svg>